<mxfile host="app.diagrams.net" modified="2023-06-25T19:43:24.868Z" agent="Mozilla/5.0 (Windows NT 10.0; Win64; x64) AppleWebKit/537.36 (KHTML, like Gecko) Chrome/114.0.0.0 Safari/537.36" etag="pY-z_xuQVzrdcjR-9jJM" version="21.5.0" type="github">
  <diagram name="Сторінка-1" id="IeGEWTI6uYEU6mFzSDsn">
    <mxGraphModel dx="1050" dy="581" grid="1" gridSize="10" guides="1" tooltips="1" connect="1" arrows="1" fold="1" page="1" pageScale="1" pageWidth="827" pageHeight="1169" math="0" shadow="0">
      <root>
        <mxCell id="0" />
        <mxCell id="1" parent="0" />
        <mxCell id="P9SAvOtFX5adnBapJRDA-3" value="" style="edgeStyle=orthogonalEdgeStyle;rounded=0;orthogonalLoop=1;jettySize=auto;html=1;" edge="1" parent="1" source="P9SAvOtFX5adnBapJRDA-1" target="P9SAvOtFX5adnBapJRDA-2">
          <mxGeometry relative="1" as="geometry" />
        </mxCell>
        <mxCell id="P9SAvOtFX5adnBapJRDA-11" style="edgeStyle=orthogonalEdgeStyle;rounded=0;orthogonalLoop=1;jettySize=auto;html=1;exitX=1;exitY=0.5;exitDx=0;exitDy=0;entryX=0;entryY=0.5;entryDx=0;entryDy=0;" edge="1" parent="1" source="P9SAvOtFX5adnBapJRDA-1" target="P9SAvOtFX5adnBapJRDA-10">
          <mxGeometry relative="1" as="geometry" />
        </mxCell>
        <mxCell id="P9SAvOtFX5adnBapJRDA-12" style="edgeStyle=orthogonalEdgeStyle;rounded=0;orthogonalLoop=1;jettySize=auto;html=1;exitX=1;exitY=0.5;exitDx=0;exitDy=0;entryX=0;entryY=0.5;entryDx=0;entryDy=0;" edge="1" parent="1" source="P9SAvOtFX5adnBapJRDA-1" target="P9SAvOtFX5adnBapJRDA-9">
          <mxGeometry relative="1" as="geometry" />
        </mxCell>
        <mxCell id="P9SAvOtFX5adnBapJRDA-13" style="edgeStyle=orthogonalEdgeStyle;rounded=0;orthogonalLoop=1;jettySize=auto;html=1;exitX=1;exitY=0.5;exitDx=0;exitDy=0;entryX=0;entryY=0.5;entryDx=0;entryDy=0;" edge="1" parent="1" source="P9SAvOtFX5adnBapJRDA-1" target="P9SAvOtFX5adnBapJRDA-8">
          <mxGeometry relative="1" as="geometry" />
        </mxCell>
        <mxCell id="P9SAvOtFX5adnBapJRDA-15" style="edgeStyle=orthogonalEdgeStyle;rounded=0;orthogonalLoop=1;jettySize=auto;html=1;exitX=1;exitY=0.5;exitDx=0;exitDy=0;entryX=0;entryY=0.5;entryDx=0;entryDy=0;" edge="1" parent="1" source="P9SAvOtFX5adnBapJRDA-1" target="P9SAvOtFX5adnBapJRDA-14">
          <mxGeometry relative="1" as="geometry" />
        </mxCell>
        <mxCell id="P9SAvOtFX5adnBapJRDA-1" value="Send Request" style="rounded=1;whiteSpace=wrap;html=1;" vertex="1" parent="1">
          <mxGeometry x="280" y="200" width="120" height="40" as="geometry" />
        </mxCell>
        <mxCell id="P9SAvOtFX5adnBapJRDA-20" style="edgeStyle=orthogonalEdgeStyle;rounded=0;orthogonalLoop=1;jettySize=auto;html=1;exitX=0.5;exitY=1;exitDx=0;exitDy=0;entryX=0;entryY=0.5;entryDx=0;entryDy=0;" edge="1" parent="1" source="P9SAvOtFX5adnBapJRDA-2" target="P9SAvOtFX5adnBapJRDA-16">
          <mxGeometry relative="1" as="geometry" />
        </mxCell>
        <mxCell id="P9SAvOtFX5adnBapJRDA-21" style="edgeStyle=orthogonalEdgeStyle;rounded=0;orthogonalLoop=1;jettySize=auto;html=1;exitX=0.5;exitY=1;exitDx=0;exitDy=0;entryX=0;entryY=0.5;entryDx=0;entryDy=0;" edge="1" parent="1" source="P9SAvOtFX5adnBapJRDA-2" target="P9SAvOtFX5adnBapJRDA-17">
          <mxGeometry relative="1" as="geometry" />
        </mxCell>
        <mxCell id="P9SAvOtFX5adnBapJRDA-22" style="edgeStyle=orthogonalEdgeStyle;rounded=0;orthogonalLoop=1;jettySize=auto;html=1;exitX=0.5;exitY=1;exitDx=0;exitDy=0;entryX=0;entryY=0.5;entryDx=0;entryDy=0;" edge="1" parent="1" source="P9SAvOtFX5adnBapJRDA-2" target="P9SAvOtFX5adnBapJRDA-18">
          <mxGeometry relative="1" as="geometry" />
        </mxCell>
        <mxCell id="P9SAvOtFX5adnBapJRDA-23" style="edgeStyle=orthogonalEdgeStyle;rounded=0;orthogonalLoop=1;jettySize=auto;html=1;exitX=0.5;exitY=1;exitDx=0;exitDy=0;entryX=0;entryY=0.5;entryDx=0;entryDy=0;" edge="1" parent="1" source="P9SAvOtFX5adnBapJRDA-2" target="P9SAvOtFX5adnBapJRDA-19">
          <mxGeometry relative="1" as="geometry" />
        </mxCell>
        <mxCell id="P9SAvOtFX5adnBapJRDA-2" value="Accept Request" style="rounded=1;whiteSpace=wrap;html=1;" vertex="1" parent="1">
          <mxGeometry x="280" y="280" width="120" height="40" as="geometry" />
        </mxCell>
        <mxCell id="P9SAvOtFX5adnBapJRDA-8" value="user: Sender" style="rounded=0;whiteSpace=wrap;html=1;" vertex="1" parent="1">
          <mxGeometry x="440" width="120" height="40" as="geometry" />
        </mxCell>
        <mxCell id="P9SAvOtFX5adnBapJRDA-9" value="companion: Receiver" style="rounded=0;whiteSpace=wrap;html=1;" vertex="1" parent="1">
          <mxGeometry x="440" y="60" width="120" height="40" as="geometry" />
        </mxCell>
        <mxCell id="P9SAvOtFX5adnBapJRDA-10" value="publicKey: KEY" style="rounded=0;whiteSpace=wrap;html=1;" vertex="1" parent="1">
          <mxGeometry x="440" y="120" width="120" height="40" as="geometry" />
        </mxCell>
        <mxCell id="P9SAvOtFX5adnBapJRDA-14" value="sharedKey: null" style="rounded=0;whiteSpace=wrap;html=1;" vertex="1" parent="1">
          <mxGeometry x="440" y="180" width="120" height="40" as="geometry" />
        </mxCell>
        <mxCell id="P9SAvOtFX5adnBapJRDA-16" value="user: Receiver" style="rounded=0;whiteSpace=wrap;html=1;" vertex="1" parent="1">
          <mxGeometry x="440" y="300" width="120" height="40" as="geometry" />
        </mxCell>
        <mxCell id="P9SAvOtFX5adnBapJRDA-17" value="companion: Sender" style="rounded=0;whiteSpace=wrap;html=1;" vertex="1" parent="1">
          <mxGeometry x="440" y="360" width="120" height="40" as="geometry" />
        </mxCell>
        <mxCell id="P9SAvOtFX5adnBapJRDA-18" value="publicKey: KEY" style="rounded=0;whiteSpace=wrap;html=1;" vertex="1" parent="1">
          <mxGeometry x="440" y="420" width="120" height="40" as="geometry" />
        </mxCell>
        <mxCell id="P9SAvOtFX5adnBapJRDA-19" value="sharedKey: KEY" style="rounded=0;whiteSpace=wrap;html=1;" vertex="1" parent="1">
          <mxGeometry x="440" y="480" width="120" height="40" as="geometry" />
        </mxCell>
      </root>
    </mxGraphModel>
  </diagram>
</mxfile>
